# xmcd
#
# Track frame offsets: 
#        150
#        11584
#        26124
#        45205
#        68894
#        90846
#        107925
#        117544
#        135929
#        148118
#        166220
#
# Disc length: 2531 seconds
#
# Revision: 0
# Processed by: cddbd v1.5.2PL0 Copyright (c) Steve Scherf et al.
# Submitted via: ExactAudioCopyFreeDBPlugin 1.0
#
DISCID=8a09e10b
DTITLE=Becky Lee And Drunkfoot - Hello Black Halo
DYEAR=2012
DGENRE=Blues
TTITLE0=Lies
TTITLE1=The Tracks
TTITLE2=Killer Mouse
TTITLE3=One More Time
TTITLE4=Secrets And Lies
TTITLE5=Man Like You
TTITLE6=Mess In Your Mind
TTITLE7=Hips Kids
TTITLE8=Shoot Em Down
TTITLE9=Cold Shadow
TTITLE10=Beginning Of The End
EXTD=
EXTT0=
EXTT1=
EXTT2=
EXTT3=
EXTT4=
EXTT5=
EXTT6=
EXTT7=
EXTT8=
EXTT9=
EXTT10=
PLAYORDER=
